<svg xmlns="http://www.w3.org/2000/svg" width="80.238" height="77.678" viewBox="0 0 80.238 77.678">
  <g id="Сгруппировать_45" data-name="Сгруппировать 45" transform="translate(1471.534 -4316.195)">
    <path id="Контур_51" data-name="Контур 51" d="M-1467.243,4364.136a5.16,5.16,0,0,0,1.2,1.875,5.147,5.147,0,0,0,3.647,1.519,5.155,5.155,0,0,0,3.648-1.519,5.154,5.154,0,0,0,1.519-3.647v-2.874a5.914,5.914,0,0,1-2.79-.454,9.6,9.6,0,0,1-.24.951,6.191,6.191,0,0,1-1.963,3.079,5.733,5.733,0,0,1-4.047,1.172,8.574,8.574,0,0,1-.978-.1Zm30.449-7.7h10.332v-3.248h-7.956a2.374,2.374,0,0,0-1.679.7,2.361,2.361,0,0,0-.7,1.675Zm10.332,2.35H-1436.8v3.576a5.151,5.151,0,0,0,1.52,3.647,5.151,5.151,0,0,0,3.647,1.519,5.138,5.138,0,0,0,3.647-1.519,5.154,5.154,0,0,0,1.519-3.647v-3.576Zm32.208,7.845a5.585,5.585,0,0,1,1.643,1.324,5.5,5.5,0,0,1,1.315,3.571v7.925a1.171,1.171,0,0,1-1.172,1.173,1.176,1.176,0,0,1-1.178-1.173v-7.925a3.171,3.171,0,0,0-.755-2.056,3.223,3.223,0,0,0-1.626-1.031,7.44,7.44,0,0,1-4.407,1.439,7.467,7.467,0,0,1-4.54-1.532,2.224,2.224,0,0,0-.693.195,2.16,2.16,0,0,0-.8.653l-6.312,8.361a1.181,1.181,0,0,1-.937.471h-8.09a2.154,2.154,0,0,0-1.532.63,2.181,2.181,0,0,0-.636,1.533,2.163,2.163,0,0,0,.636,1.533,2.163,2.163,0,0,0,1.532.635h9.662a2.108,2.108,0,0,0,1.053-.227,6.949,6.949,0,0,0,1.79-2l4.181-5.531a1.17,1.17,0,0,1,1.643-.231,1.174,1.174,0,0,1,.227,1.644l-3.976,5.268v10.244h13.58v-6.748a1.176,1.176,0,0,1,1.178-1.172,1.171,1.171,0,0,1,1.172,1.172v7.925a1.171,1.171,0,0,1-1.172,1.173h-77.889a1.176,1.176,0,0,1-1.177-1.173v-7.925a1.175,1.175,0,0,1,1.177-1.172,1.171,1.171,0,0,1,1.173,1.172v6.748h13.585v-10.244l-3.98-5.268a1.171,1.171,0,0,1,.231-1.644,1.17,1.17,0,0,1,1.643.231l4.087,5.411q.56.74,1.12,1.488a2.152,2.152,0,0,0,.764.635,2.047,2.047,0,0,0,.982.227h9.733a2.181,2.181,0,0,0,1.532-.635,2.159,2.159,0,0,0,.631-1.533,2.176,2.176,0,0,0-.631-1.533,2.171,2.171,0,0,0-1.532-.63h-8.094a1.173,1.173,0,0,1-.937-.471l-6.313-8.361a2.172,2.172,0,0,0-1.493-.848,7.473,7.473,0,0,1-4.535,1.532,7.482,7.482,0,0,1-4.411-1.434,3.226,3.226,0,0,0-1.609,1,3.181,3.181,0,0,0-.773,2.079v7.926a1.171,1.171,0,0,1-1.172,1.172,1.176,1.176,0,0,1-1.178-1.172v-7.926a5.52,5.52,0,0,1,1.351-3.611,5.648,5.648,0,0,1,1.612-1.284,7.453,7.453,0,0,1-1.337-4.269v-6.8a4.711,4.711,0,0,1,1.386-3.34,4.72,4.72,0,0,1,3.336-1.386h5.584a4.729,4.729,0,0,1,3.341,1.386,4.712,4.712,0,0,1,1.386,3.34v6.8a7.471,7.471,0,0,1-1.217,4.091,4.545,4.545,0,0,1,1.6,1.329l5.958,7.889h4.7v-4.766a4.9,4.9,0,0,1,1.875-3.608,12.338,12.338,0,0,1,3.385-2.047,7.467,7.467,0,0,1-.578-2.888v-6.8a4.723,4.723,0,0,1,1.387-3.34,4.729,4.729,0,0,1,3.34-1.386h9.133a1.179,1.179,0,0,1,1.178,1.177v10.346a7.522,7.522,0,0,1-.52,2.741,12.8,12.8,0,0,1,3.634,2.088,4.978,4.978,0,0,1,1.99,3.714v4.766h4.705l5.957-7.889a4.5,4.5,0,0,1,1.608-1.324,7.463,7.463,0,0,1-1.222-4.1v-6.8a4.727,4.727,0,0,1,1.387-3.34,4.728,4.728,0,0,1,3.34-1.386h5.584a4.729,4.729,0,0,1,3.341,1.386,4.728,4.728,0,0,1,1.386,3.34v6.8a7.49,7.49,0,0,1-1.337,4.269Zm-1.333-2.5a8.466,8.466,0,0,1-.977.1,5.729,5.729,0,0,1-4.043-1.172,6.162,6.162,0,0,1-1.968-3.079c-.093-.311-.173-.626-.236-.951a5.943,5.943,0,0,1-2.794.454v2.874a5.151,5.151,0,0,0,1.52,3.647,5.155,5.155,0,0,0,3.651,1.519,5.152,5.152,0,0,0,3.647-1.519,5.188,5.188,0,0,0,1.2-1.875Zm-10.018-7a3.831,3.831,0,0,0,2.919-.866,1.191,1.191,0,0,1,.764-.329,1.17,1.17,0,0,1,1.226,1.115,9.41,9.41,0,0,0,.364,2.244,3.9,3.9,0,0,0,1.191,1.941,3.523,3.523,0,0,0,2.466.657,8.49,8.49,0,0,0,1.408-.2v-6.126a2.365,2.365,0,0,0-.7-1.675,2.365,2.365,0,0,0-1.675-.7h-5.584a2.364,2.364,0,0,0-1.675.7,2.365,2.365,0,0,0-.7,1.675Zm-51.62,0v-1.568a2.361,2.361,0,0,0-.7-1.675,2.372,2.372,0,0,0-1.679-.7h-5.584a2.373,2.373,0,0,0-1.675.7,2.361,2.361,0,0,0-.7,1.675v6.126a8.358,8.358,0,0,0,1.4.2,3.522,3.522,0,0,0,2.465-.657,3.931,3.931,0,0,0,1.195-1.941,9.157,9.157,0,0,0,.36-2.244,1.173,1.173,0,0,1,1.226-1.115,1.172,1.172,0,0,1,.755.32A3.828,3.828,0,0,0-1457.225,4357.135Zm19.915,10.138a10.209,10.209,0,0,0-3.083,1.772,2.681,2.681,0,0,0-1.084,1.862v4.766h.458a4.509,4.509,0,0,1,3.194,1.324,4.5,4.5,0,0,1,1.324,3.194,4.519,4.519,0,0,1-.556,2.168h11.284a4.514,4.514,0,0,1-.551-2.168A4.5,4.5,0,0,1-1425,4377a4.5,4.5,0,0,1,3.194-1.324h.453v-4.766a2.767,2.767,0,0,0-1.164-1.933,10.944,10.944,0,0,0-3.323-1.826c-.151.182-.311.36-.475.525a7.5,7.5,0,0,1-5.313,2.207,7.488,7.488,0,0,1-5.309-2.207c-.129-.13-.253-.263-.373-.4Zm-24.429-42.376a1.175,1.175,0,0,1-1.172-1.177,1.171,1.171,0,0,1,1.172-1.173h21.759a1.172,1.172,0,0,1,1.173,1.173,1.175,1.175,0,0,1-1.173,1.177Zm0,12.368a1.176,1.176,0,0,1-1.172-1.178,1.175,1.175,0,0,1,1.172-1.177h10.88a1.179,1.179,0,0,1,1.177,1.177,1.179,1.179,0,0,1-1.177,1.178Zm0-6.184a1.176,1.176,0,0,1-1.172-1.177,1.171,1.171,0,0,1,1.172-1.173h21.759a1.171,1.171,0,0,1,1.173,1.173,1.176,1.176,0,0,1-1.173,1.177Zm22.963,12.532a3.239,3.239,0,0,0,.76,1.2,3.282,3.282,0,0,0,2.341.973h6.908a1.172,1.172,0,0,1,1.172,1.177,1.171,1.171,0,0,1-1.172,1.173h-6.908a5.617,5.617,0,0,1-4-1.67,5.715,5.715,0,0,1-1.537-2.852H-1457.6l-5.322,5.322a1.174,1.174,0,0,1-.835.346,1.176,1.176,0,0,1-1.177-1.173v-4.593a7.082,7.082,0,0,1-3.856-2,7.083,7.083,0,0,1-2.092-5.033V4323.32a7.1,7.1,0,0,1,2.092-5.033,7.106,7.106,0,0,1,5.033-2.092h25.8a7.106,7.106,0,0,1,5.033,2.092,7.1,7.1,0,0,1,2.092,5.033v2.177h19.964a5.636,5.636,0,0,1,4,1.662,5.636,5.636,0,0,1,1.661,4v11.319a5.638,5.638,0,0,1-1.661,4,5.669,5.669,0,0,1-2.826,1.537v4.62a1.17,1.17,0,0,1-.342.831,1.178,1.178,0,0,1-1.661,0l-5.327-5.327h-6.419a1.175,1.175,0,0,1-1.177-1.172,1.176,1.176,0,0,1,1.177-1.178h6.908a1.161,1.161,0,0,1,.835.351l3.656,3.656v-2.83a1.176,1.176,0,0,1,1.177-1.177,3.3,3.3,0,0,0,2.337-.973,3.3,3.3,0,0,0,.973-2.336v-11.319a3.3,3.3,0,0,0-.973-2.337,3.306,3.306,0,0,0-2.337-.973h-19.964v8.64a7.092,7.092,0,0,1-2.092,5.034,7.091,7.091,0,0,1-5.033,2.092Zm-19.315-2.35h20.133a4.753,4.753,0,0,0,3.371-1.4,4.758,4.758,0,0,0,1.4-3.372V4323.32a4.757,4.757,0,0,0-1.4-3.371,4.749,4.749,0,0,0-3.371-1.4h-25.8a4.753,4.753,0,0,0-3.372,1.4,4.761,4.761,0,0,0-1.4,3.371v13.167a4.762,4.762,0,0,0,1.4,3.372,4.755,4.755,0,0,0,3.372,1.4,1.175,1.175,0,0,1,1.173,1.177v2.83l3.665-3.66a1.164,1.164,0,0,1,.831-.347Zm48.515,43.446h-43.673v6.814h43.673v-6.814Z" fill="#fff"/>
  </g>
</svg>
