<svg xmlns="http://www.w3.org/2000/svg" width="76.727" height="57.466" viewBox="0 0 76.727 57.466">
  <g id="Сгруппировать_60" data-name="Сгруппировать 60" transform="translate(1960.454 -4111.674)">
    <g id="Сгруппировать_49" data-name="Сгруппировать 49">
      <g id="Сгруппировать_48" data-name="Сгруппировать 48">
        <path id="Контур_63" data-name="Контур 63" d="M-1887.246,4129.287h-7.548l-3.815-14.963a3.521,3.521,0,0,0-4.279-2.54l-8.7,2.218a1.1,1.1,0,0,0-.792,1.333,1.1,1.1,0,0,0,1.334.792l8.7-2.219a1.327,1.327,0,0,1,1.612.957l.423,1.658-57.486,14.658-.423-1.657a1.317,1.317,0,0,1,.145-1,1.312,1.312,0,0,1,.812-.608l39.542-10.083a1.1,1.1,0,0,0,.791-1.334,1.1,1.1,0,0,0-1.333-.791l-39.542,10.083a3.523,3.523,0,0,0-2.54,4.279l8.109,31.8a3.524,3.524,0,0,0,3.41,2.65,3.511,3.511,0,0,0,.869-.11l.519-.132v1.349a3.523,3.523,0,0,0,3.518,3.519h56.674a3.524,3.524,0,0,0,3.519-3.519v-32.816A3.523,3.523,0,0,0-1887.246,4129.287Zm-60.192,32.722-1.061.271a1.327,1.327,0,0,1-1.612-.958l-4.964-19.464,7.637-1.947Zm0-29.2v4.843l-8.178,2.086-1.639-6.428,10.593-2.7A3.5,3.5,0,0,0-1947.438,4132.805Zm50.381-3.519h-8.715l8.183-2.086Zm-2.712-10.639,1.639,6.428-16.516,4.212h-26.846Zm12.523,48.3h-56.673a1.328,1.328,0,0,1-1.327-1.326v-32.816a1.328,1.328,0,0,1,1.327-1.326h56.673a1.328,1.328,0,0,1,1.326,1.326v32.816h0A1.327,1.327,0,0,1-1887.246,4166.947Z" fill="#fff"/>
      </g>
    </g>
    <g id="Сгруппировать_51" data-name="Сгруппировать 51">
      <g id="Сгруппировать_50" data-name="Сгруппировать 50">
        <path id="Контур_64" data-name="Контур 64" d="M-1916.794,4156.276h-23.889a1.1,1.1,0,0,0-1.1,1.1,1.1,1.1,0,0,0,1.1,1.1h23.889a1.1,1.1,0,0,0,1.1-1.1A1.1,1.1,0,0,0-1916.794,4156.276Z" fill="#fff"/>
      </g>
    </g>
    <g id="Сгруппировать_53" data-name="Сгруппировать 53">
      <g id="Сгруппировать_52" data-name="Сгруппировать 52">
        <path id="Контур_65" data-name="Контур 65" d="M-1898.525,4137a7.173,7.173,0,0,0-4.219,1.368,7.175,7.175,0,0,0-4.225-1.368,7.226,7.226,0,0,0-7.217,7.218,7.226,7.226,0,0,0,7.218,7.218,7.175,7.175,0,0,0,4.224-1.368,7.176,7.176,0,0,0,4.219,1.368,7.226,7.226,0,0,0,7.218-7.218A7.226,7.226,0,0,0-1898.525,4137Zm-7.209,7.56c0,.028,0,.057.005.085q.009.138.021.274l.007.064a7.113,7.113,0,0,0,1.364,3.516,5,5,0,0,1-2.631.744,5.031,5.031,0,0,1-5.025-5.025,5.03,5.03,0,0,1,5.025-5.025,4.994,4.994,0,0,1,2.631.745,7.1,7.1,0,0,0-1.364,3.515l-.007.064c-.008.091-.015.182-.021.274,0,.028,0,.056-.005.084-.005.114-.008.228-.008.343S-1905.739,4144.444-1905.734,4144.557Zm7.21,4.683a5.011,5.011,0,0,1-3.525-1.447l-.055-.056c-.042-.043-.084-.086-.124-.13l-.033-.036c-.047-.053-.094-.107-.139-.161h0a5,5,0,0,1-1.148-3.194,5,5,0,0,1,1.148-3.194h0c.045-.054.092-.108.139-.161l.033-.036c.041-.044.082-.087.124-.13l.055-.055a5.007,5.007,0,0,1,3.525-1.448,5.031,5.031,0,0,1,5.025,5.025A5.031,5.031,0,0,1-1898.524,4149.24Z" fill="#fff"/>
      </g>
    </g>
    <g id="Сгруппировать_55" data-name="Сгруппировать 55">
      <g id="Сгруппировать_54" data-name="Сгруппировать 54">
        <path id="Контур_66" data-name="Контур 66" d="M-1932.87,4137.71h-4.808a4.105,4.105,0,0,0-4.1,4.1v4.808a4.105,4.105,0,0,0,4.1,4.1h4.808a4.106,4.106,0,0,0,4.1-4.1v-4.808A4.106,4.106,0,0,0-1932.87,4137.71Zm1.908,7.094h-2.339a1.1,1.1,0,0,0-1.1,1.1,1.1,1.1,0,0,0,1.1,1.1h2.3a1.91,1.91,0,0,1-1.87,1.53h-4.809a1.911,1.911,0,0,1-1.87-1.53h2.3a1.1,1.1,0,0,0,1.1-1.1,1.1,1.1,0,0,0-1.1-1.1h-2.339v-.95h2.339a1.1,1.1,0,0,0,1.1-1.1,1.1,1.1,0,0,0-1.1-1.1h-2.331a1.91,1.91,0,0,1,1.9-1.758h4.809a1.91,1.91,0,0,1,1.9,1.758h-2.331a1.1,1.1,0,0,0-1.1,1.1,1.1,1.1,0,0,0,1.1,1.1h2.339Z" fill="#fff"/>
      </g>
    </g>
    <g id="Сгруппировать_57" data-name="Сгруппировать 57">
      <g id="Сгруппировать_56" data-name="Сгруппировать 56">
        <path id="Контур_67" data-name="Контур 67" d="M-1891.052,4161.1h-38.174a1.1,1.1,0,0,0-1.1,1.1,1.1,1.1,0,0,0,1.1,1.1h38.174a1.1,1.1,0,0,0,1.1-1.1A1.1,1.1,0,0,0-1891.052,4161.1Z" fill="#fff"/>
      </g>
    </g>
    <g id="Сгруппировать_59" data-name="Сгруппировать 59">
      <g id="Сгруппировать_58" data-name="Сгруппировать 58">
        <path id="Контур_68" data-name="Контур 68" d="M-1936.215,4161.1h-4.468a1.1,1.1,0,0,0-1.1,1.1,1.1,1.1,0,0,0,1.1,1.1h4.468a1.1,1.1,0,0,0,1.1-1.1A1.1,1.1,0,0,0-1936.215,4161.1Z" fill="#fff"/>
      </g>
    </g>
  </g>
</svg>
