<svg xmlns="http://www.w3.org/2000/svg" width="80.238" height="80.238" viewBox="0 0 80.238 80.238">
  <g id="Сгруппировать_46" data-name="Сгруппировать 46" transform="translate(1472.949 -4105.994)">
    <path id="Контур_52" data-name="Контур 52" d="M-1393.607,4115.372a1.176,1.176,0,0,0-.542-.879,1.177,1.177,0,0,0-1.027-.111,42.209,42.209,0,0,1-12.921,2h-.021a34.912,34.912,0,0,1-11.968-2.01,29.7,29.7,0,0,1-11.87-7.993,1.176,1.176,0,0,0-.869-.383,1.175,1.175,0,0,0-.868.383,29.685,29.685,0,0,1-12.259,8.131,35.418,35.418,0,0,1-12.271,1.867,1.178,1.178,0,0,0-1.195,1.155,1.175,1.175,0,0,0,1.156,1.2c7.155.118,17.263-1.528,25.437-9.847a31.92,31.92,0,0,0,11.934,7.7,37.3,37.3,0,0,0,12.771,2.152h.023a45.965,45.965,0,0,0,12.288-1.688c3.128,33.98-3.386,52.468-21.664,61.685a1.175,1.175,0,0,0-.52,1.579,1.176,1.176,0,0,0,1.05.646,1.17,1.17,0,0,0,.529-.126c10.065-5.076,16.714-12.843,20.326-23.747,3.421-10.326,4.233-23.968,2.481-41.708Z" fill="#fff"/>
    <path id="Контур_53" data-name="Контур 53" d="M-1422.355,4180.867a69.907,69.907,0,0,1-10.47,2.989c-7.936-1.651-14.337-4.123-19.561-7.552a35.286,35.286,0,0,1-12.138-13.324c-5.539-10.481-7.236-25.1-5.316-45.939a44.441,44.441,0,0,0,5.689,1.2,1.174,1.174,0,0,0,1.333-.993,1.176,1.176,0,0,0-.993-1.333,37.935,37.935,0,0,1-6.662-1.535,1.175,1.175,0,0,0-1.026.111,1.175,1.175,0,0,0-.543.879c-2.181,22.083-.452,37.56,5.44,48.707a37.575,37.575,0,0,0,12.925,14.189c5.529,3.63,12.273,6.227,20.616,7.94a1.166,1.166,0,0,0,.236.024,1.168,1.168,0,0,0,.237-.024,72.581,72.581,0,0,0,11.066-3.143,1.176,1.176,0,0,0,.683-1.516,1.176,1.176,0,0,0-1.516-.682Z" fill="#fff"/>
    <path id="Контур_54" data-name="Контур 54" d="M-1401.731,4134.658h.014a1.175,1.175,0,0,0,1.175-1.162c.029-2.676-.034-5.549-.189-8.539a1.179,1.179,0,0,0-.416-.838,1.177,1.177,0,0,0-.9-.268,52.121,52.121,0,0,1-6.079.365,39.624,39.624,0,0,1-24.005-7.492,1.174,1.174,0,0,0-1.393,0,39.625,39.625,0,0,1-24.006,7.492,50.526,50.526,0,0,1-6.078-.365,1.181,1.181,0,0,0-.9.268,1.171,1.171,0,0,0-.416.838,111.728,111.728,0,0,0,.3,17.49c.764,7.248,2.379,13.127,4.939,17.97a29.927,29.927,0,0,0,10.3,11.3,49,49,0,0,0,16.292,6.469,1.186,1.186,0,0,0,.259.029,1.2,1.2,0,0,0,.26-.029,49,49,0,0,0,16.292-6.469,29.927,29.927,0,0,0,10.3-11.3c2.56-4.843,4.176-10.722,4.94-17.97.1-.938.183-1.909.253-2.886a1.175,1.175,0,0,0-1.09-1.255,1.174,1.174,0,0,0-1.255,1.089c-.068.95-.151,1.894-.247,2.805-.731,6.946-2.262,12.545-4.679,17.119a27.642,27.642,0,0,1-9.51,10.434,46.437,46.437,0,0,1-15.261,6.082,46.456,46.456,0,0,1-15.261-6.082,27.638,27.638,0,0,1-9.509-10.434c-2.418-4.574-3.948-10.173-4.68-17.119a106.746,106.746,0,0,1-.355-15.88c1.717.166,3.426.246,5.1.246a42.043,42.043,0,0,0,24.7-7.448,42.05,42.05,0,0,0,24.7,7.448c1.7,0,3.414-.085,5.1-.246.109,2.5.151,4.894.126,7.15a1.175,1.175,0,0,0,1.162,1.188Z" fill="#fff"/>
    <path id="Контур_55" data-name="Контур 55" d="M-1432.825,4157.143a1.176,1.176,0,0,0,1.176-1.176v-1.646A3.532,3.532,0,0,0-1429.3,4151a3.529,3.529,0,0,0-3.526-3.526,3.53,3.53,0,0,0-3.527,3.526,3.532,3.532,0,0,0,2.351,3.324v1.646A1.176,1.176,0,0,0-1432.825,4157.143Zm0-7.322a1.177,1.177,0,0,1,1.176,1.176,1.176,1.176,0,0,1-1.176,1.175A1.176,1.176,0,0,1-1434,4151,1.177,1.177,0,0,1-1432.825,4149.821Z" fill="#fff"/>
    <path id="Контур_56" data-name="Контур 56" d="M-1421.74,4160.04c2.93-3.931,3.171-10.1.715-18.327a1.177,1.177,0,0,0-1.127-.84h-3.228v-4.5a7.453,7.453,0,0,0-7.445-7.444,7.452,7.452,0,0,0-7.444,7.444v4.5h-3.229a1.176,1.176,0,0,0-1.126.84,31.243,31.243,0,0,0-1.542,12.191,1.175,1.175,0,0,0,1.3,1.033,1.176,1.176,0,0,0,1.034-1.3,27.878,27.878,0,0,1,1.216-10.411h19.579c1.945,6.962,1.744,12.279-.59,15.412-1.772,2.376-4.867,3.581-9.2,3.581-4.593,0-7.793-1.356-9.51-4.03a1.174,1.174,0,0,0-1.624-.355,1.175,1.175,0,0,0-.354,1.624c2.177,3.392,6.042,5.112,11.489,5.112,5.115,0,8.845-1.523,11.084-4.528Zm-5.991-19.167h-10.187v-4.5a5.1,5.1,0,0,1,5.094-5.093,5.1,5.1,0,0,1,5.093,5.093v4.5Z" fill="#fff"/>
    <circle id="Эллипс_11" data-name="Эллипс 11" cx="1.175" cy="1.175" r="1.175" transform="translate(-1459.704 4129.31)" fill="#fff"/>
    <circle id="Эллипс_12" data-name="Эллипс 12" cx="1.175" cy="1.175" r="1.175" transform="translate(-1434 4123.29)" fill="#fff"/>
    <circle id="Эллипс_13" data-name="Эллипс 13" cx="1.175" cy="1.175" r="1.175" transform="translate(-1434 4170.151)" fill="#fff"/>
    <circle id="Эллипс_14" data-name="Эллипс 14" cx="1.175" cy="1.175" r="1.175" transform="translate(-1408.296 4129.31)" fill="#fff"/>
  </g>
</svg>
