<svg xmlns="http://www.w3.org/2000/svg" width="58.074" height="80.238" viewBox="0 0 58.074 80.238">
  <g id="Сгруппировать_47" data-name="Сгруппировать 47" transform="translate(1951.531 -4315.395)">
    <path id="Контур_57" data-name="Контур 57" d="M-1907.974,4379.012v-1.543h2.857a2.275,2.275,0,0,0,2.273-2.272v-3.051h3.9a3.82,3.82,0,0,0,3.816-3.816v-21.739a3.8,3.8,0,0,0-1.4-2.951l-14.807-12.138v-2.982a13.358,13.358,0,0,0-2.683-8.062,13.356,13.356,0,0,0-6.979-4.847,5.3,5.3,0,0,0-2.994,0,13.356,13.356,0,0,0-6.979,4.847,13.358,13.358,0,0,0-2.683,8.062v2.983l-14.807,12.137a3.8,3.8,0,0,0-1.4,2.951v21.739a3.82,3.82,0,0,0,3.816,3.816h3.9v3.051a2.275,2.275,0,0,0,2.273,2.272h2.857v1.543a2.237,2.237,0,0,0,2.235,2.235h2.675a2.237,2.237,0,0,0,2.235-2.235v-1.543h3.8a2.238,2.238,0,0,0,2.157,1.657h2.675a2.236,2.236,0,0,0,2.156-1.657h3.96v1.543a2.237,2.237,0,0,0,2.235,2.235h2.674a2.238,2.238,0,0,0,2.236-2.235Zm2.387-39.754v19.876a1.176,1.176,0,0,0,1.177,1.177,1.176,1.176,0,0,0,1.176-1.177v-17.947l5.213,4.273a1.455,1.455,0,0,1,.536,1.131v21.739a1.464,1.464,0,0,1-1.462,1.462h-3.9v-1.32a2.273,2.273,0,0,0-.547-1.479l-7.944-9.268v-23.179Zm-17.74-21.389a2.952,2.952,0,0,1,1.667,0,11.163,11.163,0,0,1,7.112,6.4h-15.891a11.158,11.158,0,0,1,7.112-6.4Zm-8.9,61.025h-2.437v-5.646h2.437Zm13.223-3.779v-4.663a1.177,1.177,0,0,0-1.177-1.177,1.177,1.177,0,0,0-1.177,1.177v6.32h-2.437v-17.656h2.437v6.32a1.177,1.177,0,0,0,1.177,1.177,1.177,1.177,0,0,0,1.177-1.177V4359a2.237,2.237,0,0,0-2.235-2.235h-2.675a2.237,2.237,0,0,0-2.235,2.235v16.118h-3.724v-1.986a2.238,2.238,0,0,0-2.235-2.235h-2.675a2.238,2.238,0,0,0-2.235,2.235v1.986h-2.776V4368.5l8.208-9.575a1.177,1.177,0,0,0,.283-.766v-7.411a1.177,1.177,0,0,0-1.177-1.177,1.177,1.177,0,0,0-1.177,1.177v6.975l-7.944,9.268a2.274,2.274,0,0,0-.547,1.479v1.321h-3.9a1.464,1.464,0,0,1-1.462-1.462v-21.739a1.455,1.455,0,0,1,.536-1.131l5.212-4.273v17.947a1.177,1.177,0,0,0,1.177,1.177,1.177,1.177,0,0,0,1.177-1.177v-19.876l5.748-4.712v11.187a1.177,1.177,0,0,0,1.177,1.177,1.177,1.177,0,0,0,1.177-1.177V4328.52a10.858,10.858,0,0,1,.168-1.9h17.274a10.846,10.846,0,0,1,.168,1.9v29.64a1.175,1.175,0,0,0,.283.766l8.208,9.576v6.613h-2.776v-1.986a2.238,2.238,0,0,0-2.235-2.235h-2.675a2.238,2.238,0,0,0-2.235,2.235v1.986Zm8.672,3.779h-2.437v-5.646h2.437Z" fill="#fff"/>
    <path id="Контур_58" data-name="Контур 58" d="M-1917.09,4333.9a1.177,1.177,0,0,0-.922,1.386,4.6,4.6,0,0,1,.09.906,4.577,4.577,0,0,1-4.572,4.572,4.577,4.577,0,0,1-4.572-4.572,4.577,4.577,0,0,1,4.572-4.572,4.533,4.533,0,0,1,2.031.475,1.177,1.177,0,0,0,1.578-.53,1.176,1.176,0,0,0-.531-1.577,6.853,6.853,0,0,0-3.078-.722,6.934,6.934,0,0,0-6.926,6.926,6.934,6.934,0,0,0,6.926,6.926,6.934,6.934,0,0,0,6.926-6.926,7,7,0,0,0-.136-1.37A1.177,1.177,0,0,0-1917.09,4333.9Z" fill="#fff"/>
    <path id="Контур_59" data-name="Контур 59" d="M-1936.428,4383.092a1.177,1.177,0,0,0-1.177,1.177v1.19a1.768,1.768,0,0,1-1.767,1.766h-6.471a5.694,5.694,0,0,0-5.688,5.689v1.54a1.176,1.176,0,0,0,1.176,1.177,1.177,1.177,0,0,0,1.177-1.177v-1.54a3.339,3.339,0,0,1,3.335-3.335h6.471a4.125,4.125,0,0,0,4.121-4.12v-1.19A1.177,1.177,0,0,0-1936.428,4383.092Z" fill="#fff"/>
    <path id="Контур_60" data-name="Контур 60" d="M-1928.941,4387.579a2.09,2.09,0,0,1-1.316-1.947v-1.363a1.177,1.177,0,0,0-1.177-1.177,1.177,1.177,0,0,0-1.177,1.177v1.363a4.433,4.433,0,0,0,2.792,4.131,3.625,3.625,0,0,1,2.283,3.378v1.315a1.177,1.177,0,0,0,1.177,1.177,1.176,1.176,0,0,0,1.176-1.177v-1.315a5.968,5.968,0,0,0-3.758-5.562Z" fill="#fff"/>
    <path id="Контур_61" data-name="Контур 61" d="M-1899.145,4387.225h-6.472a1.768,1.768,0,0,1-1.766-1.766v-1.19a1.177,1.177,0,0,0-1.177-1.177,1.177,1.177,0,0,0-1.177,1.177v1.19a4.125,4.125,0,0,0,4.12,4.12h6.472a3.338,3.338,0,0,1,3.334,3.335v1.54a1.177,1.177,0,0,0,1.177,1.177,1.176,1.176,0,0,0,1.177-1.177v-1.54A5.7,5.7,0,0,0-1899.145,4387.225Z" fill="#fff"/>
    <path id="Контур_62" data-name="Контур 62" d="M-1913.555,4383.092a1.176,1.176,0,0,0-1.176,1.177v1.363a2.09,2.09,0,0,1-1.316,1.947,5.967,5.967,0,0,0-3.758,5.562v1.315a1.176,1.176,0,0,0,1.176,1.177,1.176,1.176,0,0,0,1.177-1.177v-1.315a3.625,3.625,0,0,1,2.283-3.378,4.432,4.432,0,0,0,2.791-4.131v-1.363a1.177,1.177,0,0,0-1.177-1.177Z" fill="#fff"/>
  </g>
</svg>
