<svg xmlns="http://www.w3.org/2000/svg" width="69.184" height="73" viewBox="0 0 69.184 73">
  <g id="Сгруппировать_2" data-name="Сгруппировать 2" transform="translate(2022.346 -28.725)">
    <path id="Контур_2" data-name="Контур 2" d="M-1985.326,54.475a20.066,20.066,0,0,0-8.6-3.215,19.837,19.837,0,0,0-6.726.214,26.275,26.275,0,0,0-11.223,5.754c-.67.549-1.31,1.134-1.963,1.7,7.285-2.457,14.539-3.4,21.824-.232,1.97,1.373,2.77,1.691,4.74,3.064l.5.317c9.35,9.891,5.735,25.227,3.581,29.945-.653,1.429-1.409,2.811-2.133,4.245a.868.868,0,0,0,.184-.086,4.123,4.123,0,0,0,.5-.435C-1973.571,83.065-1973.09,62.621-1985.326,54.475Z" fill="#006d76"/>
    <path id="Контур_3" data-name="Контур 3" d="M-1961.746,58.968c-2.262-.557-4.582-1.267-6.954-1.683a20.827,20.827,0,0,0-13.455,1.731c-5.509,2.833-8.593,7.492-9.709,13.481-1.179,6.324.25,12.243,3.071,17.9.186.374.39.74.59,1.107a4.1,4.1,0,0,1,.474,1.118c-.443-.421-.9-.828-1.326-1.267a23.936,23.936,0,0,1-7.117-17.783c.16-6.682,2.43-12.586,7.414-17.172,5.543-5.1,11.9-6,18.808-3.082a27.487,27.487,0,0,1,8.2,5.648" fill="#002d38"/>
    <path id="Контур_4" data-name="Контур 4" d="M-1981.236,42.762a5.494,5.494,0,0,1-5.644,5.422,5.491,5.491,0,0,1-5.28-5.777,5.481,5.481,0,0,1,5.634-5.291,5.5,5.5,0,0,1,5.29,5.646" fill="#006d76"/>
    <path id="Контур_5" data-name="Контур 5" d="M-1961.354,59.591q4.029,9.7,8.057,19.41l.135.98h-16.746q.051-.464.1-.927c.38-.876.674-1.562.826-1.919.812-1.9,1.5-3.525,2.112-5,2.239-5.353,2.819-6.994,4.888-11.825.207-.483.377-.877.484-1.125l.143.4m-7.4,19.361s6.619,0,6.773-.028c0-.1-.012-.309-.022-.576-.1-2.666-.008-5.684-.015-14.669,0-.2.036-.789.015-.989-.094-.02-6.751,16.262-6.751,16.262m7.667,0h6.6q-1.467-4.19-3.293-8.679-1.627-3.977-3.31-7.583Z" fill="#002d38"/>
    <path id="Контур_6" data-name="Контур 6" d="M-1969.921,80.523h16.613c-.53,2.034-3.416,4.944-7.08,5.38a9.085,9.085,0,0,1-9.533-5.38" fill="#002d38"/>
    <path id="Контур_7" data-name="Контур 7" d="M-2022.243,80.544a.863.863,0,0,1,.177-.038q8.187,0,16.377,0c-.39,2.6-4.506,5.372-8.119,5.483-3.585.11-7.781-2.591-8.435-5.443" fill="#002d38"/>
    <path id="Контур_8" data-name="Контур 8" d="M-1992.765,39.4c0-1.489-.009-4.587.015-6.075a.532.532,0,0,1,.332-.375c3.667-.892,7.335-1.225,11.006.007a.7.7,0,0,1,.559.8c-.034,1.276-.012,4.163-.012,5.643a6.985,6.985,0,0,0-5.943-3.214,7.334,7.334,0,0,0-5.957,3.21" fill="#002d38"/>
    <path id="Контур_9" data-name="Контур 9" d="M-2005.563,79.214c-.075-.159-.151-.318-.225-.478q-4.515-9.61-8.146-19.32c-.174.356-.3.58-.4.816q-3.715,8.929-7.427,17.859c-.11.264-.222.527-.339.788a2.716,2.716,0,0,0-.2.524,2.074,2.074,0,0,0-.049.588h16.791l-.012-.777m-8.944-.251h-6.635l6.377-15.936c.092-.205.185-.542.278-.747-.007,5.517-.013,11.166-.02,16.683m6.787.038q-2.609,0-5.216,0l-.606-.02c0-.17.005-.341.008-.512q.224-7.359.013-14.988c-.011-.381-.023-.657-.036-1.036.116.206,4.613,11.134,6.788,16.551Z" fill="#002d38"/>
    <path id="Контур_10" data-name="Контур 10" d="M-1975.852,44.435q-.247-1.023-.534-2.08c-.04-.147-.081-.291-.122-.438a.868.868,0,0,0,.247-.606.871.871,0,0,0-.527-.8q-.05-3.157-.1-6.313l.513-.371-.136-.076s-.13-.075-.265-.142c-.6-.3-9.745-4.819-10-4.885-.083.021-10.177,4.922-10.556,5.111l3.858,2.121c0-.523.031-.92-.009-1.309-.046-.447.155-.631.559-.714.732-.15,1.454-.355,2.19-.48a19.049,19.049,0,0,1,9.208.333c1.368.443,1.364.454,1.411,1.87,0,.084.021.167.043.333l2.7-1.5q.019,2.988.039,5.976a.869.869,0,0,0-.675.846.863.863,0,0,0,.337.683q-.291,1.226-.581,2.449l2.395-.008" fill="#002d38"/>
    <path id="Контур_11" data-name="Контур 11" d="M-1996.34,85.413c.983,1.19,1.973,2.375,2.948,3.571,1.955,2.4,3.891,4.808,5.862,7.195a7.768,7.768,0,0,0,1.312,1.22,1.769,1.769,0,0,0,2.61-.1,18.5,18.5,0,0,0,1.994-2.3c2.151-2.861,4.267-5.745,6.4-8.619a1.726,1.726,0,0,1,.575-.531c-.4.93-.748,1.88-1.2,2.784-1.491,2.963-2.954,5.942-4.569,8.846a13.592,13.592,0,0,1-2.467,3.04c-1.7,1.647-3.461,1.588-5.171-.069a20.717,20.717,0,0,1-3.79-5.6c-1.547-2.994-3.014-6.026-4.513-9.043a3.163,3.163,0,0,1-.117-.317l.13-.074" fill="#002d38"/>
  </g>
</svg>
