<svg xmlns="http://www.w3.org/2000/svg" width="74" height="109" viewBox="0 0 74 109">
  <g id="Сгруппировать_74" data-name="Сгруппировать 74" transform="translate(-618 -5025)">
    <g id="Контур_71" data-name="Контур 71" transform="translate(618 5025)" fill="#fff">
      <path d="M 37.01743316650391 106.7763824462891 C 36.61431884765625 106.4060897827148 35.86909484863281 105.5976181030273 34.65313720703125 103.865478515625 C 33.30667877197266 101.9474334716797 31.66312217712402 99.29602813720703 29.76810836791992 95.98492431640625 C 26.36601448059082 90.04053497314453 22.20267677307129 82.05876922607422 17.72820091247559 72.90252685546875 C 13.80161571502686 64.86746215820313 9.826677322387695 56.29847717285156 6.8225998878479 49.39275360107422 C 2.412153959274292 39.25407791137695 2.032426357269287 37.22464752197266 2.000019788742065 36.96277236938477 C 2.004862785339355 32.25007629394531 2.929911613464355 27.67940139770508 4.749646186828613 23.37704658508301 C 6.512369155883789 19.20950698852539 9.036276817321777 15.46624660491943 12.25126171112061 12.25126171112061 C 15.46624660491943 9.036276817321777 19.20949172973633 6.512369155883789 23.37703132629395 4.749661445617676 C 27.69072341918945 2.925122976303101 32.27415466308594 2 37 2 C 41.72584533691406 2 46.30927658081055 2.925122976303101 50.62297058105469 4.749661445617676 C 54.79050827026367 6.512369155883789 58.53375244140625 9.036276817321777 61.74873733520508 12.25126171112061 C 64.96372222900391 15.46624660491943 67.48763275146484 19.20950698852539 69.25035095214844 23.37704658508301 C 71.06897735595703 27.6767692565918 71.99400329589844 32.24411773681641 71.99996948242188 36.95375442504883 C 71.90847015380859 37.64744567871094 70.79743957519531 41.00551986694336 67.17510986328125 49.35972213745117 C 64.15119934082031 56.33383178710938 60.1904296875 64.91100311279297 56.30838394165039 72.89199829101563 C 51.83369064331055 82.09138488769531 47.67801666259766 90.08319854736328 44.29061508178711 96.00344848632813 C 39.88094711303711 103.7103042602539 37.80562210083008 106.0685882568359 37.01743316650391 106.7763824462891 Z" stroke="none"/>
      <path d="M 37 4 C 32.54327392578125 4 28.22196197509766 4.871963500976563 24.15614700317383 6.591651916503906 C 20.22700119018555 8.253547668457031 16.69743728637695 10.63352966308594 13.66547393798828 13.66547393798828 C 10.63352584838867 16.69743347167969 8.253547668457031 20.22699737548828 6.591651916503906 24.15614318847656 C 4.900619506835938 28.15421295166016 4.029296875 32.39947509765625 4.000724792480469 36.77747344970703 C 4.21295166015625 37.71485137939453 5.422439575195313 41.17961120605469 8.799018859863281 48.92194366455078 C 11.76559829711914 55.72418212890625 15.51434707641602 63.80485534667969 19.35470962524414 71.67543792724609 C 23.6527099609375 80.48392486572266 27.68659973144531 88.25263977050781 31.02027130126953 94.14169311523438 C 33.99168014526367 99.39078521728516 35.887939453125 102.2222137451172 37.02677154541016 103.7330322265625 C 38.17072296142578 102.228889465332 40.07694244384766 99.39712524414063 43.05849075317383 94.12438201904297 C 46.37789154052734 88.25416564941406 50.4034538269043 80.47434997558594 54.69996643066406 71.62599945068359 C 58.49681854248047 63.80667114257813 62.22980117797852 55.72196197509766 65.21123504638672 48.86114501953125 C 68.55757141113281 41.16065979003906 69.7742919921875 37.70512390136719 69.99913024902344 36.75627136230469 C 69.9678955078125 32.38577270507813 69.09664916992188 28.14776611328125 67.40834808349609 24.15614318847656 C 65.74645233154297 20.22699737548828 63.36647415161133 16.69743347167969 60.33452606201172 13.66547393798828 C 57.30256271362305 10.63352966308594 53.77300262451172 8.253547668457031 49.84385681152344 6.591651916503906 C 45.77803802490234 4.871963500976563 41.45672607421875 4 37 4 M 37 0 C 57.43452453613281 0 74 16.56547546386719 74 37 C 74 41.36849212646484 42.81934356689453 109 37 109 C 31.39507293701172 109 0 41.62406921386719 0 37 C 0 16.56547546386719 16.56547164916992 0 37 0 Z" stroke="none" fill="#006d76"/>
    </g>
    <g id="Сгруппировать_73" data-name="Сгруппировать 73" transform="translate(2651.333 5004.632)">
      <path id="Контур_2" data-name="Контур 2" d="M-1992.127,53.663a15.281,15.281,0,0,0-6.546-2.448,15.1,15.1,0,0,0-5.121.163,20.005,20.005,0,0,0-8.546,4.381c-.51.418-1,.863-1.495,1.3,5.547-1.871,11.071-2.586,16.618-.177,1.5,1.045,2.109,1.288,3.609,2.333l.378.241c7.119,7.531,4.367,19.209,2.726,22.8-.5,1.088-1.073,2.14-1.624,3.232a.659.659,0,0,0,.14-.065,3.131,3.131,0,0,0,.378-.331C-1983.176,75.432-1982.81,59.865-1992.127,53.663Z" transform="translate(-2.031 -5.331)" fill="#006d76"/>
      <path id="Контур_3" data-name="Контур 3" d="M-1969.961,57.226c-1.722-.424-3.489-.965-5.3-1.282a15.858,15.858,0,0,0-10.245,1.318,13.723,13.723,0,0,0-7.393,10.265c-.9,4.815.19,9.322,2.338,13.631.142.285.3.563.449.843a3.124,3.124,0,0,1,.361.851c-.337-.321-.686-.63-1.01-.965a18.225,18.225,0,0,1-5.419-13.541,17.633,17.633,0,0,1,5.645-13.075c4.221-3.883,9.063-4.571,14.321-2.347a20.929,20.929,0,0,1,6.247,4.3" transform="translate(-6.242 -5.473)" fill="#002d38"/>
      <path id="Контур_4" data-name="Контур 4" d="M-1983.843,41.414a4.183,4.183,0,0,1-4.3,4.129,4.181,4.181,0,0,1-4.021-4.4,4.173,4.173,0,0,1,4.29-4.029,4.192,4.192,0,0,1,4.028,4.3" transform="translate(-7.201 -2.001)" fill="#006d76"/>
      <path id="Контур_5" data-name="Контур 5" d="M-1963.395,59.5q3.068,7.39,6.135,14.779.052.372.1.746h-12.751c.026-.235.051-.471.077-.706.289-.667.513-1.189.629-1.461.618-1.448,1.14-2.684,1.608-3.8,1.705-4.076,2.147-5.325,3.722-9,.157-.368.287-.668.368-.857l.109.305m-5.633,14.742s5.04,0,5.157-.021c0-.074-.009-.235-.017-.439-.076-2.03-.006-4.328-.011-11.17,0-.152.028-.6.011-.753-.072-.015-5.14,12.382-5.14,12.382m5.838,0h5.028q-1.117-3.19-2.508-6.609c-.826-2.019-1.671-3.943-2.52-5.774Z" transform="translate(-12.51 -7.268)" fill="#002d38"/>
      <path id="Контур_6" data-name="Контур 6" d="M-1969.921,80.523h12.65c-.4,1.549-2.6,3.765-5.391,4.1a6.917,6.917,0,0,1-7.259-4.1" transform="translate(-12.507 -12.357)" fill="#002d38"/>
      <path id="Контур_7" data-name="Контур 7" d="M-2022.243,80.534a.658.658,0,0,1,.135-.029q6.234,0,12.47,0c-.3,1.98-3.431,4.09-6.182,4.175-2.73.084-5.925-1.973-6.423-4.145" transform="translate(-0.024 -12.353)" fill="#002d38"/>
      <path id="Контур_8" data-name="Контур 8" d="M-1992.765,37.672c0-1.134-.007-3.493.011-4.626a.405.405,0,0,1,.253-.286,14.777,14.777,0,0,1,8.38.005.53.53,0,0,1,.426.612c-.026.972-.009,3.17-.009,4.3a5.319,5.319,0,0,0-4.525-2.447,5.585,5.585,0,0,0-4.536,2.444" transform="translate(-7.057 -0.818)" fill="#002d38"/>
      <path id="Контур_9" data-name="Контур 9" d="M-2009.566,74.491c-.057-.121-.115-.242-.171-.364q-3.438-7.318-6.2-14.711c-.133.271-.228.442-.3.621q-2.829,6.8-5.655,13.6c-.083.2-.169.4-.258.6a2.091,2.091,0,0,0-.149.4,1.584,1.584,0,0,0-.037.448h12.785l-.009-.592m-6.81-.191h-5.052l4.856-12.134c.07-.156.141-.413.212-.569-.005,4.2-.01,8.5-.015,12.7m5.168.029q-1.986,0-3.972,0l-.461-.015c0-.129,0-.26.006-.39q.17-5.6.01-11.412c-.008-.29-.018-.5-.028-.789.088.157,3.513,8.478,5.169,12.6Z" transform="translate(0 -7.322)" fill="#002d38"/>
      <path id="Контур_10" data-name="Контур 10" d="M-1980.976,40.687q-.189-.779-.407-1.584c-.03-.112-.062-.222-.093-.334a.661.661,0,0,0,.188-.461.663.663,0,0,0-.4-.608q-.038-2.4-.077-4.807l.391-.282-.1-.058s-.1-.057-.2-.108c-.455-.228-7.42-3.669-7.613-3.72-.063.016-7.749,3.748-8.038,3.892l2.938,1.615c0-.4.024-.7-.007-1-.035-.34.118-.48.426-.544.557-.114,1.107-.27,1.667-.365a14.506,14.506,0,0,1,7.011.254c1.042.337,1.039.346,1.074,1.424,0,.064.016.127.032.254l2.059-1.143q.015,2.275.03,4.55a.662.662,0,0,0-.514.644.657.657,0,0,0,.257.52q-.222.933-.443,1.865l1.824-.006" transform="translate(-5.968 0)" fill="#002d38"/>
      <path id="Контур_11" data-name="Контур 11" d="M-1996.371,85.413c.748.906,1.5,1.808,2.245,2.719,1.489,1.825,2.963,3.661,4.463,5.479a5.927,5.927,0,0,0,1,.929,1.347,1.347,0,0,0,1.987-.077,14.081,14.081,0,0,0,1.518-1.75c1.638-2.178,3.249-4.374,4.872-6.563a1.313,1.313,0,0,1,.438-.4c-.3.708-.57,1.432-.915,2.12-1.135,2.256-2.25,4.524-3.479,6.736a10.345,10.345,0,0,1-1.878,2.315,2.526,2.526,0,0,1-3.937-.053,15.774,15.774,0,0,1-2.885-4.267c-1.178-2.28-2.3-4.588-3.437-6.886a2.367,2.367,0,0,1-.089-.241l.1-.056" transform="translate(-6.173 -13.524)" fill="#002d38"/>
    </g>
  </g>
</svg>
