<svg xmlns="http://www.w3.org/2000/svg" width="19.999" height="20.001" viewBox="0 0 19.999 20.001">
  <g id="Сгруппировать_12" data-name="Сгруппировать 12" transform="translate(779.192 -59.226)">
    <path id="Контур_17" data-name="Контур 17" d="M-764.6,71.149l-.008.063c-1.832-.914-2.024-1.035-2.261-.68-.164.246-.642.8-.786.968s-.291.175-.539.063a6.769,6.769,0,0,1-2-1.238,7.524,7.524,0,0,1-1.383-1.725c-.245-.421.266-.481.731-1.361a.459.459,0,0,0-.021-.437c-.062-.125-.56-1.35-.768-1.838s-.406-.425-.56-.425a1.241,1.241,0,0,0-1.14.286c-1.345,1.479-1.006,3,.145,4.625,2.262,2.96,3.467,3.505,5.67,4.262a3.461,3.461,0,0,0,1.567.1,2.566,2.566,0,0,0,1.68-1.189,2.07,2.07,0,0,0,.15-1.187c-.062-.113-.225-.175-.475-.288Z" fill="#fff"/>
    <path id="Контур_18" data-name="Контур 18" d="M-762.093,62.1c-6.407-6.194-17.011-1.7-17.015,7.037a9.86,9.86,0,0,0,1.329,4.954l-1.413,5.135,5.279-1.377a9.975,9.975,0,0,0,14.72-8.707,9.827,9.827,0,0,0-2.912-7.009Zm1.235,7.014A8.3,8.3,0,0,1-773.367,76.2l-.3-.179-3.125.813.837-3.038-.2-.312a8.253,8.253,0,0,1,7.021-12.621,8.223,8.223,0,0,1,5.851,2.425,8.154,8.154,0,0,1,2.424,5.825Z" fill="#fff"/>
  </g>
</svg>
